<?xml version="1.0" encoding="UTF-8" standalone="no"?><!DOCTYPE svg PUBLIC "-//W3C//DTD SVG 1.1//EN" "http://www.w3.org/Graphics/SVG/1.1/DTD/svg11.dtd"><svg width="100%" height="100%" viewBox="0 0 7779 3429" version="1.1" xmlns="http://www.w3.org/2000/svg" xmlns:xlink="http://www.w3.org/1999/xlink" xml:space="preserve" xmlns:serif="http://www.serif.com/" style="fill-rule:evenodd;clip-rule:evenodd;stroke-linejoin:round;stroke-miterlimit:2;"><g><g><g><path d="M5679.469,157.467c80.682,-47.451 169.223,-71.001 265.448,-71.001l1212.854,0c97.273,0 186.338,23.726 267.02,71.001c80.682,47.275 144.25,111.247 190.704,191.913c46.453,80.667 69.68,167.836 69.68,264.672c0,96.835 -23.227,185.587 -69.68,266.254c-46.279,80.667 -110.021,144.462 -190.704,191.21c-80.682,46.748 -169.747,70.122 -267.02,70.122l-1212.68,0c-97.447,0 -186.163,-23.374 -266.322,-70.122c-80.158,-46.748 -143.552,-110.544 -190.005,-191.21c-46.453,-80.667 -69.68,-170.473 -69.68,-266.254c0,-95.781 23.227,-184.005 69.68,-264.672c46.279,-80.667 110.021,-144.638 190.704,-191.913Z" style="fill:#fff;fill-rule:nonzero;stroke:#000;stroke-width:4.2px;"/></g><g><path d="M7453.083,108.259c89.589,52.372 160.142,123.197 211.485,212.827c51.343,89.63 77.19,187.168 77.19,292.967c0,105.798 -25.672,206.5 -77.19,295.427c-51.343,89.103 -121.897,159.401 -211.485,211.245c-89.589,51.669 -188.084,77.679 -295.311,77.679l-1212.854,0c-107.227,0 -205.373,-25.835 -294.438,-77.679c-89.065,-51.669 -159.269,-122.143 -210.612,-211.245c-51.343,-89.103 -77.19,-187.52 -77.19,-295.427c0,-107.907 25.672,-203.513 77.19,-292.967c51.343,-89.63 121.722,-160.631 210.612,-212.827c89.065,-52.372 187.211,-78.382 294.438,-78.382l1212.68,0c107.227,0 205.722,26.186 295.311,78.382l0.175,0Zm-1773.614,49.209c-80.682,47.275 -144.425,111.247 -190.704,191.913c-46.453,80.667 -69.68,168.891 -69.68,264.672c0,95.781 23.227,185.587 69.68,266.254c46.453,80.667 109.847,144.462 190.005,191.21c80.158,46.748 168.874,70.122 266.322,70.122l1212.68,0c97.273,0 186.338,-23.374 267.02,-70.122c80.682,-46.748 144.425,-110.544 190.704,-191.21c46.453,-80.667 69.68,-169.418 69.68,-266.254c0,-96.835 -23.227,-184.005 -69.68,-264.672c-46.453,-80.667 -110.021,-144.638 -190.704,-191.913c-80.682,-47.275 -169.747,-71.001 -267.02,-71.001l-1212.854,0c-96.225,0 -184.766,23.55 -265.448,71.001Z" style="fill-rule:nonzero;stroke:#fff;stroke-width:4.2px;"/></g></g></g><g><path d="M7453.882,354.028c55.914,160.02 -9.122,376.077 -169.122,536.072c-192.197,192.192 -465.266,247.351 -624.952,120.47c0.803,-121.687 61.372,-192.656 145.293,-243.537c66.002,-40.002 145.105,-68.61 224.044,-97.595c184.919,-67.87 364.029,-141.437 424.736,-315.41Z"/><path d="M6563.879,874.429c-55.914,-160.02 9.122,-376.077 169.122,-536.072c192.197,-192.192 465.266,-247.351 624.952,-120.47c-0.803,121.687 -61.372,192.656 -145.293,243.537c-66.002,40.002 -145.105,68.61 -224.044,97.595c-184.919,67.87 -364.029,141.437 -424.736,315.41Z"/></g><g><g><g><clipPath id="_clip1"><rect x="0.834" y="-0" width="5239.112" height="1228.457"/></clipPath><g clip-path="url(#_clip1)"><g><path d="M2289.689,546.742c-7.47,15.311 -17.922,30.49 -31.322,45.518c-27.942,32.689 -66.537,59.05 -115.61,79.261c-48.025,19.156 -101.639,28.646 -160.841,28.646l-350.322,0c-67.061,0 -128.009,-11.775 -182.67,-35.5c-53.614,-24.78 -96.574,-61.862 -129.057,-111.247c-31.26,-49.56 -46.977,-110.192 -46.977,-182.072l0,-31.986c0,-70.825 15.717,-130.93 46.977,-180.49c32.482,-50.615 75.967,-88.224 130.803,-113.004c55.884,-24.78 117.88,-37.082 185.988,-37.082l350.322,0l-0.175,-0.176c69.331,0 131.327,13.005 185.988,38.84c54.661,24.78 97.797,62.389 129.057,113.004c32.482,50.615 48.549,113.004 48.549,187.168l0,484.002c0,87.697 -15.717,160.807 -46.977,219.33c-31.26,57.293 -74.221,99.999 -129.057,128.118c-53.614,27.065 -114.562,40.421 -182.67,40.421l-347.004,0c-67.061,0 -127.31,-12.302 -180.924,-37.082c-53.614,-24.78 -96.05,-62.389 -127.31,-113.004c-31.26,-50.615 -46.977,-112.477 -46.977,-185.587l0,-69.068l48.549,0l0,70.825c0,94.375 28.99,165.903 87.144,214.233c58.154,48.33 131.327,72.583 219.519,72.583l347.004,0c58.154,0 110.021,-11.248 155.951,-33.743c46.977,-23.55 84.35,-60.632 112.292,-111.247c27.942,-50.615 41.913,-114.761 41.913,-192.265l0,-288.397l-12.163,0Zm-651.633,-489.098c-90.384,0.03 -165.769,23.58 -226.155,70.825c-59.202,47.275 -88.89,117.573 -88.89,210.894l0,31.986c0,93.321 29.688,163.619 88.89,210.894c60.25,46.045 135.169,69.068 224.583,69.068l348.576,0c92.732,0 168.699,-23.023 227.901,-69.068c59.202,-47.275 88.89,-117.573 88.89,-210.894l0,-31.986c0,-93.321 -29.688,-163.619 -88.89,-210.894c-59.202,-47.275 -135.169,-70.825 -227.901,-70.825l-347.004,0Zm-1265.071,512.824l286.579,-0c118.404,0 210.612,26.362 276.45,79.261c65.838,51.669 98.845,127.591 98.845,227.765l0,28.646c0,66.256 -16.765,123.197 -50.295,170.297c-32.482,46.045 -75.967,81.018 -130.803,104.568c-54.836,22.495 -114.038,33.743 -177.606,33.743l-320.11,0l0.175,-0.176c-63.743,0 -122.421,-11.248 -176.034,-33.743c-53.614,-22.495 -97.273,-57.293 -130.803,-104.568c-32.482,-47.275 -48.549,-105.095 -48.549,-173.636l0,-87.697l50.295,0l0,87.697c0,88.751 29.688,155.183 88.89,198.943c60.25,42.706 132.899,64.147 217.947,64.147l318.363,0c51.343,0 100.591,-8.963 147.568,-27.065c48.025,-19.156 86.62,-47.803 115.61,-85.939c30.212,-39.367 45.231,-87.697 45.231,-144.99l0,-30.404c0,-87.697 -28.99,-152.898 -87.144,-195.604c-56.932,-42.706 -137.963,-64.147 -243.095,-64.147l-370.405,0l0,-48.857l594.989,-487.516l0,-8.436l-844.72,0l0,-48.857l933.435,0l0,50.615l-594.814,485.759l0,10.193Zm4448.355,-40.773l70.379,0c108.45,0 193.323,27.065 254.795,81.018c62.52,53.954 93.78,130.93 93.78,231.105l0,23.55c0,77.504 -17.289,142.881 -52.042,195.604c-34.578,52.899 -84.874,93.321 -150.886,121.44c-66.013,27.065 -146.346,40.421 -241.348,40.421l-340.193,0l-0.175,0.176c-88.192,0 -165.381,-13.005 -231.219,-38.84c-66.013,-25.835 -117.356,-65.729 -154.205,-119.682c-36.848,-53.954 -55.36,-121.967 -55.36,-204.04l0,-38.84l375.47,0l0,38.84c0,17.926 2.794,31.986 8.383,42.179c5.588,8.963 14.495,15.817 26.894,20.211c12.225,3.339 28.99,5.097 50.295,5.097l298.28,0c21.306,0 38.071,-2.285 50.295,-6.678c13.447,-5.624 22.877,-13.532 28.466,-23.55c6.636,-11.248 10.129,-24.253 10.129,-38.84l0,-25.307c0,-22.495 -7.859,-39.894 -23.401,-52.372c-15.717,-12.302 -36.848,-18.629 -63.743,-18.629l-546.439,0l0,-242.88l313.474,-155.183l0,-27.065l-472.568,0l0,-313.529l1094.451,0l0,307.026l-343.511,173.636l0,25.132Zm-1766.803,693.314c-175.336,0 -309.981,-43.936 -403.936,-131.633c-92.732,-88.751 -139.186,-226.535 -139.186,-413.176l0,-124.779c0,-187.696 46.279,-326.007 139.186,-414.934c93.78,-88.751 228.425,-133.215 403.936,-133.215l402.189,-0c108.45,0 199.959,17.926 274.879,53.954c75.967,36.028 134.645,92.266 176.034,168.715c41.389,76.449 61.996,174.339 61.996,293.494l0,42.179l-390.488,0l0,-42.179c-1.048,-46.045 -6.112,-82.073 -15.019,-107.907c-8.906,-25.835 -23.401,-44.463 -43.659,-55.711c-19.035,-12.302 -45.231,-18.629 -78.761,-18.629l-365.341,0c-53.614,0 -93.256,16.872 -118.928,50.615c-24.624,32.689 -36.848,86.642 -36.848,161.861l0,129.876c0,73.11 12.225,126.009 36.848,158.522c25.672,32.689 65.314,48.857 118.928,48.857l365.341,0c33.53,0 59.726,-5.624 78.761,-16.872c20.083,-11.248 34.578,-29.877 43.659,-55.711c10.129,-27.065 15.019,-62.917 15.019,-107.907l0,-33.743l390.488,0l0,31.986c0,119.155 -20.607,217.045 -61.996,293.494c-40.167,76.449 -98.321,132.687 -174.288,168.715c-75.967,36.028 -168.175,53.954 -276.45,53.954l-402.189,0l-0.175,0.176Z" style="fill-rule:nonzero;"/></g></g></g></g></g><g><g><path d="M357.212,3425.234c-87.488,0 -153.858,-15.18 -205.144,-45.539c-51.286,-30.36 -87.488,-78.935 -114.639,-151.798c-24.135,-69.827 -36.202,-166.978 -36.202,-294.489l0,-1177.954c0,-127.511 12.067,-224.661 36.202,-294.489c27.151,-72.863 63.353,-124.475 114.639,-151.798c51.286,-30.36 117.656,-45.539 205.144,-45.539l42.236,0c81.454,0 147.825,15.18 199.111,45.539c51.286,30.36 90.505,78.935 114.639,151.798c27.151,69.827 39.219,170.014 39.219,294.489l0,540.402l-277.548,0l0,-610.229c0,-39.468 -6.034,-72.863 -12.067,-97.151c-6.034,-24.288 -15.084,-39.468 -27.151,-51.611c-12.067,-9.108 -30.168,-15.18 -51.286,-15.18l-18.101,0c-30.168,0 -51.286,12.144 -66.37,36.432c-12.067,24.288 -21.118,66.791 -21.118,127.511l0,1317.609c0,60.719 9.05,103.223 21.118,127.511c15.084,24.288 36.202,36.432 66.37,36.432l18.101,0c21.118,0 39.219,-6.072 51.286,-15.18c12.067,-12.144 21.118,-27.324 27.151,-51.611c6.034,-24.288 12.067,-57.683 12.067,-97.151l0,-522.186l277.548,0l0,452.359c0,127.511 -12.067,224.661 -39.219,294.489c-24.135,72.863 -63.353,121.439 -114.639,151.798c-51.286,30.36 -117.656,45.539 -199.111,45.539l-42.236,0Z" style="fill-rule:nonzero;"/></g><g><path d="M1201.885,3425.234c-114.639,0 -202.127,-33.396 -253.414,-103.223c-54.303,-66.791 -81.454,-185.194 -81.454,-355.208l0,-995.796c0,-166.978 27.151,-285.381 81.454,-352.172c51.286,-69.827 138.774,-103.223 253.414,-103.223l45.252,0c117.656,0 202.127,33.396 256.43,103.223c51.286,66.791 78.438,185.194 78.438,352.172l0,995.796c0,170.014 -27.151,288.417 -78.438,355.208c-54.303,69.827 -138.774,103.223 -256.43,103.223l-45.252,0Zm30.168,-251.985c30.168,0 51.286,-9.108 63.353,-33.396c12.067,-21.252 18.101,-60.719 18.101,-112.331l0,-1114.199c0,-51.611 -6.034,-91.079 -18.101,-112.331c-12.067,-24.288 -33.185,-33.396 -63.353,-33.396l-15.084,0c-30.168,0 -51.286,9.108 -63.353,33.396c-12.067,21.252 -21.118,60.719 -21.118,112.331l0,1114.199c0,54.647 9.05,91.079 21.118,112.331c12.067,24.288 33.185,33.396 63.353,33.396l15.084,0Z" style="fill-rule:nonzero;"/></g><g><path d="M1720.768,1782.777l-78.438,0l0,-251.985l123.69,0l0,-27.324l-45.252,-18.216l0,-33.396c0,-57.683 15.084,-103.223 48.269,-133.582c33.185,-30.36 90.505,-45.539 174.976,-45.539l126.707,0l0,197.338l-87.488,0c-24.135,0 -36.202,3.036 -45.252,12.144c-9.05,6.072 -12.067,21.252 -12.067,39.468l0,42.504l144.808,0l0,218.589l-84.471,0l0,1624.241l-265.481,0l0,-1624.241Z" style="fill-rule:nonzero;"/></g><g><path d="M2200.433,1782.777l-78.438,0l0,-251.985l123.69,0l0,-27.324l-45.252,-18.216l0,-33.396c0,-57.683 15.084,-103.223 48.269,-133.582c33.185,-30.36 90.505,-45.539 174.976,-45.539l126.707,0l0,197.338l-87.488,0c-24.135,0 -36.202,3.036 -45.252,12.144c-9.05,6.072 -12.067,21.252 -12.067,39.468l0,42.504l144.808,0l0,218.589l-84.471,0l0,1624.241l-265.481,0l0,-1624.241Z" style="fill-rule:nonzero;"/></g><g><path d="M2876.192,2526.588l0,500.934l6.034,85.007c6.034,21.252 15.084,36.432 27.151,45.539c12.067,9.108 27.151,15.18 48.269,15.18l12.067,0c21.118,0 36.202,-6.072 48.269,-15.18c12.067,-9.108 21.118,-24.288 27.151,-45.539l6.034,-85.007l0,-355.208l253.414,0l0,297.525c0,112.331 -9.05,203.41 -33.185,270.201c-24.135,66.791 -57.32,115.367 -105.589,142.69c-45.252,27.324 -108.606,42.504 -187.043,42.504l-36.202,0c-114.639,0 -199.111,-33.396 -253.414,-103.223c-54.303,-66.791 -81.454,-185.194 -81.454,-352.172l0,-1001.868c0,-166.978 27.151,-282.345 81.454,-352.172c54.303,-66.791 138.774,-100.187 253.414,-100.187l36.202,0c114.639,0 199.111,33.396 250.397,100.187c51.286,69.827 75.421,185.194 75.421,352.172l0,558.618l-428.39,0Zm174.976,-179.122l0,-452.359c0,-51.611 -6.034,-91.079 -18.101,-112.331c-12.067,-21.252 -33.185,-33.396 -63.353,-33.396l-12.067,0c-30.168,0 -51.286,12.144 -63.353,33.396c-12.067,24.288 -18.101,60.719 -18.101,112.331l0,452.359l174.976,0Z" style="fill-rule:nonzero;"/></g><g><path d="M3672.612,2526.588l0,500.934l6.034,85.007c6.034,21.252 15.084,36.432 27.151,45.539c12.067,9.108 27.151,15.18 48.269,15.18l12.067,0c21.118,0 36.202,-6.072 48.269,-15.18c12.067,-9.108 21.118,-24.288 27.151,-45.539l6.034,-85.007l0,-355.208l253.414,0l0,297.525c0,112.331 -9.05,203.41 -33.185,270.201c-24.135,66.791 -57.32,115.367 -105.589,142.69c-45.252,27.324 -108.606,42.504 -187.043,42.504l-36.202,0c-114.639,0 -199.111,-33.396 -253.414,-103.223c-54.303,-66.791 -81.454,-185.194 -81.454,-352.172l0,-1001.868c0,-166.978 27.151,-282.345 81.454,-352.172c54.303,-66.791 138.774,-100.187 253.414,-100.187l36.202,0c114.639,0 199.111,33.396 250.397,100.187c51.286,69.827 75.421,185.194 75.421,352.172l0,558.618l-428.39,0Zm174.976,-179.122l0,-452.359c0,-51.611 -6.034,-91.079 -18.101,-112.331c-12.067,-21.252 -33.185,-33.396 -63.353,-33.396l-12.067,0c-30.168,0 -51.286,12.144 -63.353,33.396c-12.067,24.288 -18.101,60.719 -18.101,112.331l0,452.359l174.976,0Z" style="fill-rule:nonzero;"/></g><g><path d="M4472.048,1916.36l0,1490.659l-265.481,0l0,-1876.226l165.926,0l0,163.942l25.037,-0c9.046,-40.268 22.824,-73.799 41.333,-100.187c36.202,-51.611 104.081,-78.935 197.602,-78.935c69.387,0 125.198,15.18 164.417,42.504c39.219,27.324 66.37,72.863 84.471,136.618c15.084,63.755 24.135,154.834 24.135,267.165l0,1445.119l-265.481,0l0,-1490.659c0,-36.432 -3.017,-66.791 -9.05,-88.043c-3.017,-24.288 -12.067,-39.468 -24.135,-48.575c-12.067,-9.108 -31.677,-12.144 -52.794,-12.144c-21.118,0 -40.727,3.036 -52.794,12.144c-12.067,9.108 -21.118,24.288 -27.151,45.539c-6.034,21.252 -6.034,51.611 -6.034,91.079Z" style="fill-rule:nonzero;"/></g><g><path d="M5283.541,2526.588l0,500.934l6.034,85.007c6.034,21.252 15.084,36.432 27.151,45.539c12.067,9.108 27.151,15.18 48.269,15.18l12.067,0c21.118,0 36.202,-6.072 48.269,-15.18c12.067,-9.108 21.118,-24.288 27.151,-45.539l6.034,-85.007l0,-355.208l253.414,0l0,297.525c0,112.331 -9.05,203.41 -33.185,270.201c-24.135,66.791 -57.32,115.367 -105.589,142.69c-45.252,27.324 -108.606,42.504 -187.043,42.504l-36.202,0c-114.639,0 -199.111,-33.396 -253.414,-103.223c-54.303,-66.791 -81.454,-185.194 -81.454,-352.172l0,-1001.868c0,-166.978 27.151,-282.345 81.454,-352.172c54.303,-66.791 138.774,-100.187 253.414,-100.187l36.202,0c114.639,0 199.111,33.396 250.397,100.187c51.286,69.827 75.421,185.194 75.421,352.172l0,558.618l-428.39,0Zm174.976,-179.122l0,-452.359c0,-51.611 -6.034,-91.079 -18.101,-112.331c-12.067,-21.252 -33.185,-33.396 -63.353,-33.396l-12.067,0c-30.168,0 -51.286,12.144 -63.353,33.396c-12.067,24.288 -18.101,60.719 -18.101,112.331l0,452.359l174.976,0Z" style="fill-rule:nonzero;"/></g><g><path d="M6085.994,2004.402l0,1402.616l-265.481,0l0,-1876.226l153.858,0l0,163.942l22.598,0l7.57,-42.504c9.05,-42.504 24.135,-72.863 45.252,-91.079c21.118,-21.252 51.286,-30.36 87.488,-30.36l81.454,0l0,312.704l-48.269,0c-24.135,0 -39.219,3.036 -51.286,12.144c-12.067,12.144 -21.118,27.324 -27.151,51.611l-6.034,97.151Z" style="fill-rule:nonzero;"/></g><g><path d="M6544.545,3425.234c-99.555,0 -168.942,-33.396 -211.178,-100.187c-39.219,-66.791 -60.337,-185.194 -60.337,-349.136l0,-1007.94c0,-115.367 9.05,-203.41 27.151,-270.201c15.084,-63.755 45.252,-112.331 84.471,-139.654c39.219,-27.324 93.522,-42.504 162.909,-42.504l6.034,0c72.404,0 123.69,15.18 162.909,48.575c36.202,30.36 57.32,72.863 66.37,130.546l27.151,0c-3.017,-51.611 -12.067,-91.079 -30.168,-124.475c-15.084,-30.36 -39.219,-57.683 -66.37,-78.935l0,-218.589l265.481,0l0,2134.283l-168.942,0l0,-179.122l-24.135,0c-12.067,66.791 -36.202,115.367 -75.421,148.762c-36.202,33.396 -90.505,48.575 -156.875,48.575l-9.05,0Zm87.488,-255.021c27.151,0 48.269,-12.144 63.353,-33.396c12.067,-24.288 18.101,-60.719 18.101,-112.331l0,-1111.163c0,-51.611 -6.034,-88.043 -21.118,-112.331c-12.067,-21.252 -33.185,-33.396 -60.337,-33.396l-9.05,0c-30.168,0 -51.286,12.144 -63.353,36.432c-15.084,21.252 -21.118,57.683 -21.118,109.295l0,1111.163c0,51.611 6.034,88.043 21.118,112.331c12.067,21.252 33.185,33.396 63.353,33.396l9.05,0Z" style="fill-rule:nonzero;"/></g><g><path d="M7413.358,3419.162c-78.438,0 -141.791,-15.18 -190.06,-45.539c-48.269,-27.324 -84.471,-72.863 -108.606,-133.582c-24.135,-60.719 -36.202,-142.69 -36.202,-239.841l0,-327.884l265.481,0l0,382.532c0,48.575 6.034,85.007 18.101,106.259c12.067,21.252 33.185,33.396 60.337,33.396l9.05,0c27.151,0 48.269,-12.144 60.337,-33.396c12.067,-21.252 18.101,-54.647 18.101,-97.151l0,-267.165c0,-42.504 -6.034,-75.899 -21.118,-103.223c-12.067,-27.324 -30.168,-48.575 -51.286,-63.755l-90.505,-54.647c-57.32,-27.324 -102.572,-57.683 -135.757,-85.007c-33.185,-30.36 -63.353,-72.863 -90.505,-130.546c-24.135,-60.719 -36.202,-139.654 -36.202,-239.841l0,-200.374c0,-145.726 27.151,-248.949 81.454,-309.668c51.286,-63.755 138.774,-94.115 256.43,-94.115l18.101,0c78.438,0 141.791,12.144 190.06,39.468c48.269,27.324 84.471,69.827 105.589,130.546c24.135,57.683 36.202,136.618 36.202,233.769l0,340.028l-265.481,0l0,-382.532c0,-51.611 -6.034,-85.007 -15.084,-106.259c-12.067,-21.252 -33.185,-33.396 -60.337,-33.396l-6.034,0c-30.168,0 -48.269,12.144 -60.337,30.36c-12.067,21.252 -15.084,54.647 -15.084,100.187l0,267.165c0,39.468 6.034,72.863 21.118,100.187c15.084,27.324 33.185,48.575 54.303,66.791l87.488,54.647c54.303,30.36 99.555,57.683 135.757,88.043c33.185,27.324 63.353,69.827 87.488,127.511c27.151,57.683 39.219,136.618 39.219,230.733l0,194.302c0,151.798 -27.151,261.093 -78.438,324.848c-51.286,63.755 -135.757,97.151 -256.43,97.151l-27.151,0Z" style="fill-rule:nonzero;"/></g></g></svg>