<?xml version="1.0" encoding="UTF-8" standalone="no"?>
<!DOCTYPE svg PUBLIC "-//W3C//DTD SVG 1.1//EN" "http://www.w3.org/Graphics/SVG/1.1/DTD/svg11.dtd">
<svg width="100%" height="100%" viewBox="0 0 1866 857" version="1.1" xmlns="http://www.w3.org/2000/svg" xmlns:xlink="http://www.w3.org/1999/xlink" xml:space="preserve" xmlns:serif="http://www.serif.com/" style="fill-rule:evenodd;clip-rule:evenodd;stroke-linejoin:round;stroke-miterlimit:2;">
    <g transform="matrix(1,0,0,1,-290.697089,-1330.127376)">
        <g transform="matrix(1.005931,0,0,1.01234,1863.041779,1477.549352)">
            <g transform="matrix(1,0,0,1,-291.666667,-145.625)">
                <g transform="matrix(4.166667,0,0,4.166667,0,0)">
                    <path d="M121.59,6.16C126.72,9.14 130.76,13.17 133.7,18.27C136.64,23.37 138.12,28.92 138.12,34.94C138.12,40.96 136.65,46.69 133.7,51.75C130.76,56.82 126.72,60.82 121.59,63.77C116.46,66.71 110.82,68.19 104.68,68.19L35.23,68.19C29.09,68.19 23.47,66.72 18.37,63.77C13.27,60.83 9.25,56.82 6.31,51.75C3.37,46.68 1.89,41.08 1.89,34.94C1.89,28.8 3.36,23.36 6.31,18.27C9.25,13.17 13.28,9.13 18.37,6.16C23.47,3.18 29.09,1.7 35.23,1.7L104.67,1.7C110.81,1.7 116.45,3.19 121.58,6.16L121.59,6.16ZM124.9,19.753C121.356,29.91 110.899,34.206 100.103,38.169C95.494,39.861 90.876,41.531 87.023,43.867C82.123,46.837 78.587,50.98 78.54,58.085C87.863,65.493 103.806,62.272 115.027,51.052C124.368,41.71 128.165,29.096 124.9,19.753ZM72.94,50.137C76.484,39.98 86.941,35.684 97.737,31.721C102.346,30.029 106.964,28.359 110.817,26.023C115.717,23.053 119.253,18.91 119.3,11.805C109.977,4.397 94.034,7.618 82.813,18.838C73.472,28.18 69.675,40.794 72.94,50.137Z"/>
                </g>
            </g>
        </g>
        <g transform="matrix(1.005931,0,0,1.01234,919.403806,1477.549352)">
            <g transform="matrix(1,0,0,1,-625,-145.625)">
                <clipPath id="_clip1">
                    <rect x="0" y="0" width="1250" height="291.25"/>
                </clipPath>
                <g clip-path="url(#_clip1)">
                    <g transform="matrix(4.166667,0,0,4.166667,0,0)">
                        <path d="M131.064,31.11C130.636,31.981 130.037,32.845 129.27,33.7C127.67,35.56 125.46,37.06 122.65,38.21C119.9,39.3 116.83,39.84 113.44,39.84L93.38,39.84C89.54,39.84 86.05,39.17 82.92,37.82C79.85,36.41 77.39,34.3 75.53,31.49C73.74,28.67 72.84,25.22 72.84,21.13L72.84,19.31C72.84,15.28 73.74,11.86 75.53,9.04C77.39,6.16 79.88,4.02 83.02,2.61C86.22,1.2 89.77,0.5 93.67,0.5L113.73,0.5L113.72,0.49C117.69,0.49 121.24,1.23 124.37,2.7C127.5,4.11 129.97,6.25 131.76,9.13C133.62,12.01 134.54,15.56 134.54,19.78L134.54,47.32C134.54,52.31 133.64,56.47 131.85,59.8C130.06,63.06 127.6,65.49 124.46,67.09C121.39,68.63 117.9,69.39 114,69.39L94.13,69.39C90.29,69.39 86.84,68.69 83.77,67.28C80.7,65.87 78.27,63.73 76.48,60.85C74.69,57.97 73.79,54.45 73.79,50.29L73.79,46.36L76.57,46.36L76.57,50.39C76.57,55.76 78.23,59.83 81.56,62.58C84.89,65.33 89.08,66.71 94.13,66.71L114,66.71C117.33,66.71 120.3,66.07 122.93,64.79C125.62,63.45 127.76,61.34 129.36,58.46C130.96,55.58 131.76,51.93 131.76,47.52L131.76,31.11L131.064,31.11ZM93.75,3.28C88.574,3.282 84.258,4.622 80.8,7.31C77.41,10 75.71,14 75.71,19.31L75.71,21.13C75.71,26.44 77.41,30.44 80.8,33.13C84.25,35.75 88.54,37.06 93.66,37.06L113.62,37.06C118.93,37.06 123.28,35.75 126.67,33.13C130.06,30.44 131.76,26.44 131.76,21.13L131.76,19.31C131.76,14 130.06,10 126.67,7.31C123.28,4.62 118.93,3.28 113.62,3.28L93.76,3.28L93.75,3.28ZM21.31,32.46L37.72,32.46C44.5,32.46 49.78,33.96 53.55,36.97C57.32,39.91 59.21,44.23 59.21,49.93L59.21,51.56C59.21,55.33 58.25,58.57 56.33,61.25C54.47,63.87 51.98,65.86 48.84,67.2C45.7,68.48 42.31,69.12 38.67,69.12L20.34,69.12L20.35,69.11C16.7,69.11 13.34,68.47 10.27,67.19C7.2,65.91 4.7,63.93 2.78,61.24C0.92,58.55 0,55.26 0,51.36L0,46.37L2.88,46.37L2.88,51.36C2.88,56.41 4.58,60.19 7.97,62.68C11.42,65.11 15.58,66.33 20.45,66.33L38.68,66.33C41.62,66.33 44.44,65.82 47.13,64.79C49.88,63.7 52.09,62.07 53.75,59.9C55.48,57.66 56.34,54.91 56.34,51.65L56.34,49.92C56.34,44.93 54.68,41.22 51.35,38.79C48.09,36.36 43.45,35.14 37.43,35.14L16.22,35.14L16.22,32.36L50.29,4.62L50.29,4.14L1.92,4.14L1.92,1.36L55.37,1.36L55.37,4.24L21.31,31.88L21.31,32.46ZM276.03,30.14L280.06,30.14C286.27,30.14 291.13,31.68 294.65,34.75C298.23,37.82 300.02,42.2 300.02,47.9L300.02,49.24C300.02,53.65 299.03,57.37 297.04,60.37C295.06,63.38 292.18,65.68 288.4,67.28C284.62,68.82 280.02,69.58 274.58,69.58L255.1,69.58L255.09,69.59C250.04,69.59 245.62,68.85 241.85,67.38C238.07,65.91 235.13,63.64 233.02,60.57C230.91,57.5 229.85,53.63 229.85,48.96L229.85,46.75L251.35,46.75L251.35,48.96C251.35,49.98 251.51,50.78 251.83,51.36C252.15,51.87 252.66,52.26 253.37,52.51C254.07,52.7 255.03,52.8 256.25,52.8L273.33,52.8C274.55,52.8 275.51,52.67 276.21,52.42C276.98,52.1 277.52,51.65 277.84,51.08C278.22,50.44 278.42,49.7 278.42,48.87L278.42,47.43C278.42,46.15 277.97,45.16 277.08,44.45C276.18,43.75 274.97,43.39 273.43,43.39L242.14,43.39L242.14,29.57L260.09,20.74L260.09,19.2L233.03,19.2L233.03,1.36L295.7,1.36L295.7,18.83L276.03,28.71L276.03,30.14ZM174.86,69.59C164.82,69.59 157.11,67.09 151.73,62.1C146.42,57.05 143.76,49.21 143.76,38.59L143.76,31.49C143.76,20.81 146.41,12.94 151.73,7.88C157.1,2.83 164.81,0.3 174.86,0.3L197.89,0.3C204.1,0.3 209.34,1.32 213.63,3.37C217.98,5.42 221.34,8.62 223.71,12.97C226.08,17.32 227.26,22.89 227.26,29.67L227.26,32.07L204.9,32.07L204.9,29.67C204.84,27.05 204.55,25 204.04,23.53C203.53,22.06 202.7,21 201.54,20.36C200.45,19.66 198.95,19.3 197.03,19.3L176.11,19.3C173.04,19.3 170.77,20.26 169.3,22.18C167.89,24.04 167.19,27.11 167.19,31.39L167.19,38.78C167.19,42.94 167.89,45.95 169.3,47.8C170.77,49.66 173.04,50.58 176.11,50.58L197.03,50.58C198.95,50.58 200.45,50.26 201.54,49.62C202.69,48.98 203.52,47.92 204.04,46.45C204.62,44.91 204.9,42.87 204.9,40.31L204.9,38.39L227.26,38.39L227.26,40.21C227.26,46.99 226.08,52.56 223.71,56.91C221.41,61.26 218.08,64.46 213.73,66.51C209.38,68.56 204.1,69.58 197.9,69.58L174.87,69.58L174.86,69.59Z"/>
                    </g>
                </g>
            </g>
        </g>
    </g>
    <g transform="matrix(1.214588,0,0,1.214588,-1016.911026,-1422.76945)">
        <path d="M905.479,1876.516C882.442,1876.516 865.621,1869.823 855.018,1856.435C844.415,1843.048 839.113,1819.707 839.113,1786.413L839.113,1588.713C839.113,1555.688 844.415,1532.515 855.018,1519.193C865.621,1505.871 882.442,1499.21 905.479,1499.21L914.638,1499.21C929.507,1499.21 941.513,1501.995 950.657,1507.563C959.801,1513.132 966.645,1522.457 971.188,1535.538C975.732,1548.62 978.004,1566.345 978.004,1588.713L978.004,1697.126L927.454,1697.126L927.454,1577.876C927.454,1570.701 926.918,1564.999 925.846,1560.771C924.774,1556.543 923.074,1553.484 920.746,1551.593C918.418,1549.702 915.31,1548.757 911.423,1548.757L908.292,1548.757C904.392,1548.757 901.252,1549.715 898.874,1551.63C896.496,1553.546 894.768,1556.643 893.69,1560.921C892.612,1565.199 892.073,1570.851 892.073,1577.876L892.073,1798.254C892.073,1804.973 892.613,1810.48 893.695,1814.777C894.776,1819.074 896.523,1822.179 898.935,1824.091C901.348,1826.004 904.467,1826.96 908.292,1826.96L911.423,1826.96C915.235,1826.96 918.301,1825.985 920.62,1824.035C922.938,1822.085 924.657,1819.046 925.776,1814.918C926.895,1810.79 927.454,1805.235 927.454,1798.254L927.454,1727.904L978.004,1727.904L978.004,1786.413C978.004,1809.182 975.732,1827.105 971.188,1840.184C966.645,1853.262 959.801,1862.587 950.657,1868.159C941.513,1873.73 929.507,1876.516 914.638,1876.516L905.479,1876.516Z" style="fill-rule:nonzero;"/>
        <path d="M1064.249,1876.516C1041.093,1876.516 1024.185,1869.793 1013.526,1856.346C1002.867,1842.899 997.537,1819.529 997.537,1786.235L997.537,1589.079C997.537,1555.935 1002.867,1532.671 1013.526,1519.287C1024.185,1505.902 1041.093,1499.21 1064.249,1499.21L1073.409,1499.21C1096.571,1499.21 1113.384,1505.902 1123.846,1519.287C1134.309,1532.671 1139.54,1555.935 1139.54,1589.079L1139.54,1786.235C1139.54,1819.648 1134.309,1843.048 1123.846,1856.435C1113.384,1869.823 1096.571,1876.516 1073.409,1876.516L1064.249,1876.516ZM1070.193,1826.96C1076.181,1826.96 1080.41,1824.73 1082.882,1820.271C1085.354,1815.812 1086.59,1808.41 1086.59,1798.066L1086.59,1578.054C1086.59,1567.441 1085.323,1559.905 1082.788,1555.446C1080.254,1550.987 1076.056,1548.757 1070.193,1548.757L1067.062,1548.757C1061.356,1548.757 1057.167,1550.988 1054.495,1555.451C1051.823,1559.913 1050.487,1567.448 1050.487,1578.054L1050.487,1798.066C1050.487,1808.529 1051.821,1815.96 1054.49,1820.36C1057.159,1824.76 1061.349,1826.96 1067.062,1826.96L1070.193,1826.96Z" style="fill-rule:nonzero;"/>
        <path d="M1167.41,1551.888L1151.753,1551.888L1151.753,1502.163L1176.353,1502.163L1176.353,1496.735L1167.41,1493.116L1167.41,1486.601C1167.41,1474.976 1170.606,1466.201 1177,1460.276C1183.394,1454.351 1194.903,1451.388 1211.528,1451.388L1237.075,1451.388L1237.075,1490.126L1219.225,1490.126C1214.944,1490.126 1212.046,1490.873 1210.53,1492.366C1209.014,1493.86 1208.256,1496.554 1208.256,1500.448L1208.256,1508.679L1237.075,1508.679L1237.075,1551.888L1219.956,1551.888L1219.956,1872.973L1167.41,1872.973L1167.41,1551.888Z" style="fill-rule:nonzero;"/>
        <path d="M1262.808,1551.888L1247.151,1551.888L1247.151,1502.163L1271.751,1502.163L1271.751,1496.735L1262.808,1493.116L1262.808,1486.601C1262.808,1474.976 1266.004,1466.201 1272.398,1460.276C1278.792,1454.351 1290.301,1451.388 1306.926,1451.388L1332.473,1451.388L1332.473,1490.126L1314.623,1490.126C1310.342,1490.126 1307.443,1490.873 1305.928,1492.366C1304.412,1493.86 1303.654,1496.554 1303.654,1500.448L1303.654,1508.679L1332.473,1508.679L1332.473,1551.888L1315.354,1551.888L1315.354,1872.973L1262.808,1872.973L1262.808,1551.888Z" style="fill-rule:nonzero;"/>
        <path d="M1396.859,1699.001L1396.859,1798.254C1396.859,1805.135 1397.429,1810.684 1398.57,1814.899C1399.71,1819.115 1401.457,1822.149 1403.81,1824.002C1406.163,1825.855 1409.249,1826.782 1413.068,1826.782L1415.843,1826.782C1419.787,1826.782 1422.935,1825.824 1425.288,1823.909C1427.641,1821.993 1429.357,1818.995 1430.435,1814.913C1431.513,1810.832 1432.052,1805.279 1432.052,1798.254L1432.052,1727.932L1482.602,1727.932L1482.602,1786.413C1482.602,1809.057 1480.301,1826.949 1475.698,1840.09C1471.095,1853.23 1464.121,1862.587 1454.777,1868.159C1445.434,1873.73 1432.996,1876.516 1417.465,1876.516L1410.443,1876.516C1387.405,1876.516 1370.555,1869.823 1359.893,1856.435C1349.23,1843.048 1343.899,1819.707 1343.899,1786.413L1343.899,1588.704C1343.899,1555.685 1349.23,1532.484 1359.893,1519.099C1370.555,1505.715 1387.405,1499.023 1410.443,1499.023L1417.465,1499.023C1440.509,1499.023 1457.126,1505.745 1467.316,1519.188C1477.507,1532.632 1482.602,1555.804 1482.602,1588.704L1482.602,1699.001L1396.859,1699.001ZM1432.052,1663.32L1432.052,1574.06C1432.052,1563.716 1430.785,1556.37 1428.251,1552.02C1425.716,1547.67 1421.58,1545.495 1415.843,1545.495L1413.068,1545.495C1407.48,1545.495 1403.382,1547.702 1400.773,1552.118C1398.163,1556.534 1396.859,1563.848 1396.859,1574.06L1396.859,1663.32L1432.052,1663.32Z" style="fill-rule:nonzero;"/>
        <path d="M1555.254,1699.001L1555.254,1798.254C1555.254,1805.135 1555.824,1810.684 1556.965,1814.899C1558.106,1819.115 1559.852,1822.149 1562.206,1824.002C1564.559,1825.855 1567.645,1826.782 1571.463,1826.782L1574.238,1826.782C1578.182,1826.782 1581.331,1825.824 1583.684,1823.909C1586.037,1821.993 1587.752,1818.995 1588.831,1814.913C1589.909,1810.832 1590.448,1805.279 1590.448,1798.254L1590.448,1727.932L1640.998,1727.932L1640.998,1786.413C1640.998,1809.057 1638.696,1826.949 1634.093,1840.09C1629.49,1853.23 1622.516,1862.587 1613.173,1868.159C1603.829,1873.73 1591.391,1876.516 1575.86,1876.516L1568.838,1876.516C1545.801,1876.516 1528.951,1869.823 1518.288,1856.435C1507.626,1843.048 1502.295,1819.707 1502.295,1786.413L1502.295,1588.704C1502.295,1555.685 1507.626,1532.484 1518.288,1519.099C1528.951,1505.715 1545.801,1499.023 1568.838,1499.023L1575.86,1499.023C1598.904,1499.023 1615.521,1505.745 1625.712,1519.188C1635.902,1532.632 1640.998,1555.804 1640.998,1588.704L1640.998,1699.001L1555.254,1699.001ZM1590.448,1663.32L1590.448,1574.06C1590.448,1563.716 1589.181,1556.37 1586.646,1552.02C1584.112,1547.67 1579.976,1545.495 1574.238,1545.495L1571.463,1545.495C1565.876,1545.495 1561.777,1547.702 1559.168,1552.118C1556.559,1556.534 1555.254,1563.848 1555.254,1574.06L1555.254,1663.32L1590.448,1663.32Z" style="fill-rule:nonzero;"/>
        <path d="M1714.221,1578.148L1714.221,1872.973L1661.684,1872.973L1661.684,1502.163L1694.806,1502.163L1694.806,1534.863L1699.488,1534.863C1701.317,1526.734 1704.133,1519.998 1707.935,1514.655C1715.263,1504.359 1728.159,1499.21 1746.621,1499.21L1747.221,1499.21C1761.146,1499.21 1772.009,1501.965 1779.809,1507.474C1787.609,1512.984 1793.145,1522.052 1796.417,1534.68C1799.688,1547.309 1801.324,1564.945 1801.324,1587.588L1801.324,1872.973L1748.787,1872.973L1748.787,1578.148C1748.787,1570.898 1748.248,1565.082 1747.17,1560.701C1746.092,1556.32 1744.345,1553.234 1741.929,1551.443C1739.513,1549.652 1736.206,1548.757 1732.006,1548.757L1731.012,1548.757C1726.812,1548.757 1723.502,1549.652 1721.084,1551.443C1718.665,1553.234 1716.917,1556.274 1715.838,1560.565C1714.76,1564.855 1714.221,1570.716 1714.221,1578.148Z" style="fill-rule:nonzero;"/>
        <path d="M1875.643,1699.001L1875.643,1798.254C1875.643,1805.135 1876.213,1810.684 1877.354,1814.899C1878.494,1819.115 1880.241,1822.149 1882.594,1824.002C1884.947,1825.855 1888.033,1826.782 1891.852,1826.782L1894.627,1826.782C1898.571,1826.782 1901.719,1825.824 1904.072,1823.909C1906.426,1821.993 1908.141,1818.995 1909.219,1814.913C1910.297,1810.832 1910.837,1805.279 1910.837,1798.254L1910.837,1727.932L1961.387,1727.932L1961.387,1786.413C1961.387,1809.057 1959.085,1826.949 1954.482,1840.09C1949.879,1853.23 1942.905,1862.587 1933.562,1868.159C1924.218,1873.73 1911.78,1876.516 1896.249,1876.516L1889.227,1876.516C1866.19,1876.516 1849.34,1869.823 1838.677,1856.435C1828.015,1843.048 1822.683,1819.707 1822.683,1786.413L1822.683,1588.704C1822.683,1555.685 1828.015,1532.484 1838.677,1519.099C1849.34,1505.715 1866.19,1499.023 1889.227,1499.023L1896.249,1499.023C1919.293,1499.023 1935.91,1505.745 1946.101,1519.188C1956.291,1532.632 1961.387,1555.804 1961.387,1588.704L1961.387,1699.001L1875.643,1699.001ZM1910.837,1663.32L1910.837,1574.06C1910.837,1563.716 1909.569,1556.37 1907.035,1552.02C1904.501,1547.67 1900.365,1545.495 1894.627,1545.495L1891.852,1545.495C1886.265,1545.495 1882.166,1547.702 1879.557,1552.118C1876.947,1556.534 1875.643,1563.848 1875.643,1574.06L1875.643,1663.32L1910.837,1663.32Z" style="fill-rule:nonzero;"/>
        <path d="M2035.341,1595.604L2035.341,1872.973L1982.982,1872.973L1982.982,1502.163L2013.535,1502.163L2013.535,1534.685L2017.564,1534.685C2017.971,1531.531 2018.473,1528.647 2019.071,1526.032C2020.949,1517.813 2024.029,1511.78 2028.31,1507.934C2032.591,1504.087 2038.304,1502.163 2045.448,1502.163L2061.891,1502.163L2061.891,1563.673L2052.066,1563.673C2047.71,1563.673 2044.379,1564.663 2042.073,1566.645C2039.766,1568.626 2038.068,1571.927 2036.977,1576.549C2035.887,1581.171 2035.341,1587.523 2035.341,1595.604Z" style="fill-rule:nonzero;"/>
        <path d="M2126.793,1876.516C2107.118,1876.516 2093.181,1869.893 2084.981,1856.646C2076.781,1843.399 2072.681,1820.401 2072.681,1787.651L2072.681,1588.498C2072.681,1565.854 2074.418,1548.098 2077.893,1535.229C2081.368,1522.36 2087.071,1513.14 2095.002,1507.568C2102.934,1501.996 2113.727,1499.21 2127.384,1499.21L2128.518,1499.21C2142.624,1499.21 2153.352,1502.32 2160.702,1508.538C2168.052,1514.757 2172.565,1523.404 2174.24,1534.479L2179.593,1534.479C2178.924,1524.641 2176.951,1516.552 2173.673,1510.212C2170.395,1503.871 2165.962,1498.563 2160.374,1494.288L2160.374,1451.473L2212.912,1451.473L2212.912,1872.973L2179.781,1872.973L2179.781,1837.282L2174.615,1837.282C2172.284,1850.632 2167.379,1860.509 2159.901,1866.912C2152.423,1873.315 2141.962,1876.516 2128.518,1876.516L2126.793,1876.516ZM2144.165,1825.976C2149.752,1825.976 2153.851,1823.746 2156.46,1819.287C2159.07,1814.827 2160.374,1807.56 2160.374,1797.485L2160.374,1577.651C2160.374,1567.576 2159.04,1560.309 2156.371,1555.849C2153.702,1551.39 2149.634,1549.16 2144.165,1549.16L2142.037,1549.16C2136.324,1549.16 2132.163,1551.459 2129.554,1556.055C2126.945,1560.652 2125.64,1567.851 2125.64,1577.651L2125.64,1797.485C2125.64,1807.679 2126.946,1814.976 2129.559,1819.376C2132.171,1823.776 2136.331,1825.976 2142.037,1825.976L2144.165,1825.976Z" style="fill-rule:nonzero;"/>
        <path d="M2299.455,1875.12C2283.743,1875.12 2271.071,1872.295 2261.44,1866.645C2251.808,1860.995 2244.685,1852.124 2240.069,1840.034C2235.454,1827.943 2233.146,1812.035 2233.146,1792.31L2233.146,1727.895L2285.749,1727.895L2285.749,1803.195C2285.749,1812.901 2286.993,1819.929 2289.48,1824.279C2291.968,1828.629 2295.961,1830.804 2301.461,1830.804L2302.99,1830.804C2308.49,1830.804 2312.515,1828.72 2315.065,1824.551C2317.615,1820.382 2318.89,1813.866 2318.89,1805.004L2318.89,1752.251C2318.89,1744.157 2317.488,1737.448 2314.685,1732.123C2311.882,1726.798 2308.324,1722.563 2304.011,1719.42C2299.699,1716.276 2293.765,1712.72 2286.208,1708.751C2275.033,1702.926 2266.052,1697.216 2259.265,1691.623C2252.477,1686.029 2246.547,1677.409 2241.475,1665.762C2236.404,1654.115 2233.868,1638.454 2233.868,1618.779L2233.868,1578.748C2233.868,1550.298 2239.25,1529.898 2250.016,1517.548C2260.782,1505.198 2277.924,1499.023 2301.443,1499.023L2304.583,1499.023C2320.565,1499.023 2333.31,1501.712 2342.819,1507.09C2352.329,1512.468 2359.363,1520.966 2363.922,1532.585C2368.482,1544.204 2370.761,1559.676 2370.761,1579.001L2370.761,1645.901L2318.168,1645.901L2318.168,1570.545C2318.168,1560.57 2317.05,1553.504 2314.816,1549.348C2312.582,1545.191 2308.702,1543.113 2303.177,1543.113L2301.64,1543.113C2296.115,1543.113 2292.235,1545.132 2290,1549.17C2287.766,1553.207 2286.649,1559.788 2286.649,1568.913L2286.649,1621.366C2286.649,1629.435 2288.082,1636.162 2290.947,1641.546C2293.813,1646.93 2297.432,1651.255 2301.804,1654.521C2306.175,1657.787 2312.005,1661.463 2319.293,1665.551C2330.23,1671.251 2339.158,1676.935 2346.077,1682.604C2352.996,1688.273 2358.961,1696.802 2363.974,1708.193C2368.986,1719.584 2371.493,1734.801 2371.493,1753.845L2371.493,1792.17C2371.493,1822.226 2366.35,1843.565 2356.066,1856.187C2345.782,1868.809 2328.758,1875.12 2304.996,1875.12L2299.455,1875.12Z" style="fill-rule:nonzero;"/>
    </g>
</svg>
