<?xml version="1.0" encoding="UTF-8" standalone="no"?>
<!DOCTYPE svg PUBLIC "-//W3C//DTD SVG 1.1//EN" "http://www.w3.org/Graphics/SVG/1.1/DTD/svg11.dtd">
<svg width="100%" height="100%" viewBox="0 0 1867 901" version="1.1" xmlns="http://www.w3.org/2000/svg" xmlns:xlink="http://www.w3.org/1999/xlink" xml:space="preserve" xmlns:serif="http://www.serif.com/" style="fill-rule:evenodd;clip-rule:evenodd;stroke-linejoin:round;stroke-miterlimit:2;">
    <g transform="matrix(1,0,0,1,-290.697089,-1330.127376)">
        <g transform="matrix(1.005931,0,0,1.01234,1863.041779,1477.549352)">
            <g transform="matrix(1,0,0,1,-291.666667,-145.625)">
                <g transform="matrix(4.166667,0,0,4.166667,0,0)">
                    <path d="M20.03,8.96C15.41,11.65 11.76,15.29 9.11,19.88C6.45,24.47 5.12,29.49 5.12,34.94C5.12,40.39 6.45,45.5 9.11,50.09C11.77,54.68 15.4,58.31 19.99,60.97C24.58,63.63 29.66,64.96 35.24,64.96L104.68,64.96C110.25,64.96 115.35,63.63 119.97,60.97C124.59,58.31 128.24,54.68 130.89,50.09C133.55,45.5 134.88,40.45 134.88,34.94C134.88,29.43 133.55,24.47 130.89,19.88C128.23,15.29 124.59,11.65 119.97,8.96C115.35,6.27 110.25,4.92 104.68,4.92L35.23,4.92C29.72,4.92 24.65,6.26 20.03,8.96Z" style="fill:white;fill-opacity:0;fill-rule:nonzero;stroke:black;stroke-width:0.24px;"/>
                </g>
                <g transform="matrix(4.166667,0,0,4.166667,0,0)">
                    <path d="M121.59,6.16C126.72,9.14 130.76,13.17 133.7,18.27C136.64,23.37 138.12,28.92 138.12,34.94C138.12,40.96 136.65,46.69 133.7,51.75C130.76,56.82 126.72,60.82 121.59,63.77C116.46,66.71 110.82,68.19 104.68,68.19L35.23,68.19C29.09,68.19 23.47,66.72 18.37,63.77C13.27,60.83 9.25,56.82 6.31,51.75C3.37,46.68 1.89,41.08 1.89,34.94C1.89,28.8 3.36,23.36 6.31,18.27C9.25,13.17 13.28,9.13 18.37,6.16C23.47,3.18 29.09,1.7 35.23,1.7L104.67,1.7C110.81,1.7 116.45,3.19 121.58,6.16L121.59,6.16ZM20.03,8.96C15.41,11.65 11.76,15.29 9.11,19.88C6.45,24.47 5.12,29.49 5.12,34.94C5.12,40.39 6.45,45.5 9.11,50.09C11.77,54.68 15.4,58.31 19.99,60.97C24.58,63.63 29.66,64.96 35.24,64.96L104.68,64.96C110.25,64.96 115.35,63.63 119.97,60.97C124.59,58.31 128.24,54.68 130.89,50.09C133.55,45.5 134.88,40.45 134.88,34.94C134.88,29.43 133.55,24.47 130.89,19.88C128.23,15.29 124.59,11.65 119.97,8.96C115.35,6.27 110.25,4.92 104.68,4.92L35.23,4.92C29.72,4.92 24.65,6.26 20.03,8.96Z" style="fill-rule:nonzero;"/>
                </g>
            </g>
        </g>
        <g transform="matrix(3.011577,0,0,3.011577,1598.085297,1326.97051)">
            <path d="M85.464,29.263C89.92,42.016 84.737,59.235 71.986,71.986C56.669,87.303 34.907,91.699 22.181,81.587C22.245,71.889 27.072,66.233 33.76,62.178C39.02,58.99 45.324,56.71 51.615,54.4C66.352,48.991 80.626,43.128 85.464,29.263Z"/>
            <path d="M14.536,70.737C10.08,57.984 15.263,40.765 28.014,28.014C43.331,12.697 65.093,8.301 77.819,18.413C77.755,28.111 72.928,33.767 66.24,37.822C60.98,41.01 54.676,43.29 48.385,45.6C33.648,51.009 19.374,56.872 14.536,70.737Z"/>
        </g>
        <g transform="matrix(1.005931,0,0,1.01234,919.403806,1477.549352)">
            <g transform="matrix(1,0,0,1,-625,-145.625)">
                <clipPath id="_clip1">
                    <rect x="0" y="0" width="1250" height="291.25"/>
                </clipPath>
                <g clip-path="url(#_clip1)">
                    <g transform="matrix(4.166667,0,0,4.166667,0,0)">
                        <path d="M131.064,31.11C130.636,31.981 130.037,32.845 129.27,33.7C127.67,35.56 125.46,37.06 122.65,38.21C119.9,39.3 116.83,39.84 113.44,39.84L93.38,39.84C89.54,39.84 86.05,39.17 82.92,37.82C79.85,36.41 77.39,34.3 75.53,31.49C73.74,28.67 72.84,25.22 72.84,21.13L72.84,19.31C72.84,15.28 73.74,11.86 75.53,9.04C77.39,6.16 79.88,4.02 83.02,2.61C86.22,1.2 89.77,0.5 93.67,0.5L113.73,0.5L113.72,0.49C117.69,0.49 121.24,1.23 124.37,2.7C127.5,4.11 129.97,6.25 131.76,9.13C133.62,12.01 134.54,15.56 134.54,19.78L134.54,47.32C134.54,52.31 133.64,56.47 131.85,59.8C130.06,63.06 127.6,65.49 124.46,67.09C121.39,68.63 117.9,69.39 114,69.39L94.13,69.39C90.29,69.39 86.84,68.69 83.77,67.28C80.7,65.87 78.27,63.73 76.48,60.85C74.69,57.97 73.79,54.45 73.79,50.29L73.79,46.36L76.57,46.36L76.57,50.39C76.57,55.76 78.23,59.83 81.56,62.58C84.89,65.33 89.08,66.71 94.13,66.71L114,66.71C117.33,66.71 120.3,66.07 122.93,64.79C125.62,63.45 127.76,61.34 129.36,58.46C130.96,55.58 131.76,51.93 131.76,47.52L131.76,31.11L131.064,31.11ZM93.75,3.28C88.574,3.282 84.258,4.622 80.8,7.31C77.41,10 75.71,14 75.71,19.31L75.71,21.13C75.71,26.44 77.41,30.44 80.8,33.13C84.25,35.75 88.54,37.06 93.66,37.06L113.62,37.06C118.93,37.06 123.28,35.75 126.67,33.13C130.06,30.44 131.76,26.44 131.76,21.13L131.76,19.31C131.76,14 130.06,10 126.67,7.31C123.28,4.62 118.93,3.28 113.62,3.28L93.76,3.28L93.75,3.28ZM21.31,32.46L37.72,32.46C44.5,32.46 49.78,33.96 53.55,36.97C57.32,39.91 59.21,44.23 59.21,49.93L59.21,51.56C59.21,55.33 58.25,58.57 56.33,61.25C54.47,63.87 51.98,65.86 48.84,67.2C45.7,68.48 42.31,69.12 38.67,69.12L20.34,69.12L20.35,69.11C16.7,69.11 13.34,68.47 10.27,67.19C7.2,65.91 4.7,63.93 2.78,61.24C0.92,58.55 0,55.26 0,51.36L0,46.37L2.88,46.37L2.88,51.36C2.88,56.41 4.58,60.19 7.97,62.68C11.42,65.11 15.58,66.33 20.45,66.33L38.68,66.33C41.62,66.33 44.44,65.82 47.13,64.79C49.88,63.7 52.09,62.07 53.75,59.9C55.48,57.66 56.34,54.91 56.34,51.65L56.34,49.92C56.34,44.93 54.68,41.22 51.35,38.79C48.09,36.36 43.45,35.14 37.43,35.14L16.22,35.14L16.22,32.36L50.29,4.62L50.29,4.14L1.92,4.14L1.92,1.36L55.37,1.36L55.37,4.24L21.31,31.88L21.31,32.46ZM276.03,30.14L280.06,30.14C286.27,30.14 291.13,31.68 294.65,34.75C298.23,37.82 300.02,42.2 300.02,47.9L300.02,49.24C300.02,53.65 299.03,57.37 297.04,60.37C295.06,63.38 292.18,65.68 288.4,67.28C284.62,68.82 280.02,69.58 274.58,69.58L255.1,69.58L255.09,69.59C250.04,69.59 245.62,68.85 241.85,67.38C238.07,65.91 235.13,63.64 233.02,60.57C230.91,57.5 229.85,53.63 229.85,48.96L229.85,46.75L251.35,46.75L251.35,48.96C251.35,49.98 251.51,50.78 251.83,51.36C252.15,51.87 252.66,52.26 253.37,52.51C254.07,52.7 255.03,52.8 256.25,52.8L273.33,52.8C274.55,52.8 275.51,52.67 276.21,52.42C276.98,52.1 277.52,51.65 277.84,51.08C278.22,50.44 278.42,49.7 278.42,48.87L278.42,47.43C278.42,46.15 277.97,45.16 277.08,44.45C276.18,43.75 274.97,43.39 273.43,43.39L242.14,43.39L242.14,29.57L260.09,20.74L260.09,19.2L233.03,19.2L233.03,1.36L295.7,1.36L295.7,18.83L276.03,28.71L276.03,30.14ZM174.86,69.59C164.82,69.59 157.11,67.09 151.73,62.1C146.42,57.05 143.76,49.21 143.76,38.59L143.76,31.49C143.76,20.81 146.41,12.94 151.73,7.88C157.1,2.83 164.81,0.3 174.86,0.3L197.89,0.3C204.1,0.3 209.34,1.32 213.63,3.37C217.98,5.42 221.34,8.62 223.71,12.97C226.08,17.32 227.26,22.89 227.26,29.67L227.26,32.07L204.9,32.07L204.9,29.67C204.84,27.05 204.55,25 204.04,23.53C203.53,22.06 202.7,21 201.54,20.36C200.45,19.66 198.95,19.3 197.03,19.3L176.11,19.3C173.04,19.3 170.77,20.26 169.3,22.18C167.89,24.04 167.19,27.11 167.19,31.39L167.19,38.78C167.19,42.94 167.89,45.95 169.3,47.8C170.77,49.66 173.04,50.58 176.11,50.58L197.03,50.58C198.95,50.58 200.45,50.26 201.54,49.62C202.69,48.98 203.52,47.92 204.04,46.45C204.62,44.91 204.9,42.87 204.9,40.31L204.9,38.39L227.26,38.39L227.26,40.21C227.26,46.99 226.08,52.56 223.71,56.91C221.41,61.26 218.08,64.46 213.73,66.51C209.38,68.56 204.1,69.58 197.9,69.58L174.87,69.58L174.86,69.59Z" style="fill-rule:nonzero;"/>
                    </g>
                </g>
            </g>
        </g>
    </g>
    <g transform="matrix(1.206757,0,0,1.206757,-1004.339963,-1363.739107)">
        <path d="M903.746,1876.516C886.771,1876.516 873.252,1873.563 863.19,1867.657C853.127,1861.751 845.56,1851.788 840.488,1837.77C835.416,1823.751 832.881,1804.285 832.881,1779.373L832.881,1546.573C832.881,1521.66 835.416,1502.165 840.488,1488.087C845.56,1474.009 853.127,1464.046 863.19,1458.199C873.252,1452.352 886.771,1449.429 903.746,1449.429L912.109,1449.429C928.696,1449.429 942.021,1452.382 952.084,1458.288C962.146,1464.195 969.713,1474.187 974.785,1488.265C979.857,1502.343 982.393,1521.779 982.393,1546.573L982.393,1653.485L927.062,1653.485L927.062,1532.923C927.062,1524.829 926.424,1518.438 925.149,1513.751C923.874,1509.063 921.996,1505.695 919.515,1503.645C917.034,1501.595 913.627,1500.57 909.296,1500.57L905.977,1500.57C899.871,1500.57 895.451,1502.907 892.716,1507.582C889.982,1512.257 888.615,1520.704 888.615,1532.923L888.615,1793.023C888.615,1805.241 889.982,1813.688 892.716,1818.363C895.451,1823.038 899.871,1825.376 905.977,1825.376L909.296,1825.376C913.634,1825.376 917.041,1824.351 919.52,1822.301C921.998,1820.251 923.874,1816.882 925.149,1812.195C926.424,1807.507 927.062,1801.116 927.062,1793.023L927.062,1689.982L982.393,1689.982L982.393,1779.373C982.393,1804.285 979.857,1823.751 974.785,1837.77C969.713,1851.788 962.146,1861.751 952.084,1867.657C942.021,1873.563 928.696,1876.516 912.109,1876.516L903.746,1876.516ZM1072.048,1876.516C1048.892,1876.516 1031.984,1869.793 1021.324,1856.346C1010.665,1842.899 1005.335,1819.529 1005.335,1786.235L1005.335,1589.079C1005.335,1555.935 1010.665,1532.671 1021.324,1519.287C1031.984,1505.902 1048.892,1499.21 1072.048,1499.21L1081.207,1499.21C1104.37,1499.21 1121.182,1505.902 1131.645,1519.287C1142.107,1532.671 1147.339,1555.935 1147.339,1589.079L1147.339,1786.235C1147.339,1819.648 1142.107,1843.048 1131.645,1856.435C1121.182,1869.823 1104.37,1876.516 1081.207,1876.516L1072.048,1876.516ZM1077.992,1826.96C1083.979,1826.96 1088.209,1824.73 1090.681,1820.271C1093.153,1815.812 1094.389,1808.41 1094.389,1798.066L1094.389,1578.054C1094.389,1567.441 1093.121,1559.905 1090.587,1555.446C1088.053,1550.987 1083.854,1548.757 1077.992,1548.757L1074.86,1548.757C1069.154,1548.757 1064.965,1550.988 1062.293,1555.451C1059.621,1559.913 1058.285,1567.448 1058.285,1578.054L1058.285,1798.066C1058.285,1808.529 1059.62,1815.96 1062.289,1820.36C1064.957,1824.76 1069.148,1826.96 1074.86,1826.96L1077.992,1826.96ZM1175.208,1551.888L1159.552,1551.888L1159.552,1502.163L1184.152,1502.163L1184.152,1496.735L1175.208,1493.116L1175.208,1486.601C1175.208,1474.976 1178.405,1466.201 1184.799,1460.276C1191.192,1454.351 1202.702,1451.388 1219.327,1451.388L1244.874,1451.388L1244.874,1490.126L1227.024,1490.126C1222.742,1490.126 1219.844,1490.873 1218.328,1492.366C1216.813,1493.86 1216.055,1496.554 1216.055,1500.448L1216.055,1508.679L1244.874,1508.679L1244.874,1551.888L1227.755,1551.888L1227.755,1872.973L1175.208,1872.973L1175.208,1551.888ZM1270.606,1551.888L1254.95,1551.888L1254.95,1502.163L1279.55,1502.163L1279.55,1496.735L1270.606,1493.116L1270.606,1486.601C1270.606,1474.976 1273.803,1466.201 1280.197,1460.276C1286.59,1454.351 1298.1,1451.388 1314.725,1451.388L1340.272,1451.388L1340.272,1490.126L1322.422,1490.126C1318.14,1490.126 1315.242,1490.873 1313.726,1492.366C1312.211,1493.86 1311.453,1496.554 1311.453,1500.448L1311.453,1508.679L1340.272,1508.679L1340.272,1551.888L1323.153,1551.888L1323.153,1872.973L1270.606,1872.973L1270.606,1551.888ZM1404.657,1699.001L1404.657,1798.254C1404.657,1805.135 1405.227,1810.684 1406.368,1814.899C1407.509,1819.115 1409.256,1822.149 1411.609,1824.002C1413.962,1825.855 1417.048,1826.782 1420.866,1826.782L1423.641,1826.782C1427.585,1826.782 1430.734,1825.824 1433.087,1823.909C1435.44,1821.993 1437.156,1818.995 1438.234,1814.913C1439.312,1810.832 1439.851,1805.279 1439.851,1798.254L1439.851,1727.932L1490.401,1727.932L1490.401,1786.413C1490.401,1809.057 1488.099,1826.949 1483.496,1840.09C1478.893,1853.23 1471.92,1862.587 1462.576,1868.159C1453.232,1873.73 1440.795,1876.516 1425.263,1876.516L1418.241,1876.516C1395.204,1876.516 1378.354,1869.823 1367.691,1856.435C1357.029,1843.048 1351.698,1819.707 1351.698,1786.413L1351.698,1588.704C1351.698,1555.685 1357.029,1532.484 1367.691,1519.099C1378.354,1505.715 1395.204,1499.023 1418.241,1499.023L1425.263,1499.023C1448.307,1499.023 1464.924,1505.745 1475.115,1519.188C1485.306,1532.632 1490.401,1555.804 1490.401,1588.704L1490.401,1699.001L1404.657,1699.001ZM1439.851,1663.32L1439.851,1574.06C1439.851,1563.716 1438.584,1556.37 1436.049,1552.02C1433.515,1547.67 1429.379,1545.495 1423.641,1545.495L1420.866,1545.495C1415.279,1545.495 1411.181,1547.702 1408.571,1552.118C1405.962,1556.534 1404.657,1563.848 1404.657,1574.06L1404.657,1663.32L1439.851,1663.32ZM1563.052,1699.001L1563.052,1798.254C1563.052,1805.135 1563.623,1810.684 1564.763,1814.899C1565.904,1819.115 1567.651,1822.149 1570.004,1824.002C1572.357,1825.855 1575.443,1826.782 1579.262,1826.782L1582.037,1826.782C1585.981,1826.782 1589.129,1825.824 1591.482,1823.909C1593.835,1821.993 1595.551,1818.995 1596.629,1814.913C1597.707,1810.832 1598.246,1805.279 1598.246,1798.254L1598.246,1727.932L1648.796,1727.932L1648.796,1786.413C1648.796,1809.057 1646.495,1826.949 1641.892,1840.09C1637.288,1853.23 1630.315,1862.587 1620.971,1868.159C1611.627,1873.73 1599.19,1876.516 1583.659,1876.516L1576.637,1876.516C1553.599,1876.516 1536.749,1869.823 1526.087,1856.435C1515.424,1843.048 1510.093,1819.707 1510.093,1786.413L1510.093,1588.704C1510.093,1555.685 1515.424,1532.484 1526.087,1519.099C1536.749,1505.715 1553.599,1499.023 1576.637,1499.023L1583.659,1499.023C1606.702,1499.023 1623.32,1505.745 1633.51,1519.188C1643.701,1532.632 1648.796,1555.804 1648.796,1588.704L1648.796,1699.001L1563.052,1699.001ZM1598.246,1663.32L1598.246,1574.06C1598.246,1563.716 1596.979,1556.37 1594.445,1552.02C1591.91,1547.67 1587.774,1545.495 1582.037,1545.495L1579.262,1545.495C1573.674,1545.495 1569.576,1547.702 1566.967,1552.118C1564.357,1556.534 1563.052,1563.848 1563.052,1574.06L1563.052,1663.32L1598.246,1663.32ZM1722.02,1578.148L1722.02,1872.973L1669.482,1872.973L1669.482,1502.163L1702.604,1502.163L1702.604,1534.863L1707.286,1534.863C1709.116,1526.734 1711.932,1519.998 1715.734,1514.655C1723.062,1504.359 1735.957,1499.21 1754.42,1499.21L1755.02,1499.21C1768.945,1499.21 1779.807,1501.965 1787.607,1507.474C1795.407,1512.984 1800.943,1522.052 1804.215,1534.68C1807.487,1547.309 1809.123,1564.945 1809.123,1587.588L1809.123,1872.973L1756.585,1872.973L1756.585,1578.148C1756.585,1570.898 1756.046,1565.082 1754.968,1560.701C1753.89,1556.32 1752.143,1553.234 1749.728,1551.443C1747.312,1549.652 1744.004,1548.757 1739.804,1548.757L1738.81,1548.757C1734.61,1548.757 1731.301,1549.652 1728.882,1551.443C1726.463,1553.234 1724.715,1556.274 1723.637,1560.565C1722.559,1564.855 1722.02,1570.716 1722.02,1578.148ZM1883.441,1699.001L1883.441,1798.254C1883.441,1805.135 1884.012,1810.684 1885.152,1814.899C1886.293,1819.115 1888.04,1822.149 1890.393,1824.002C1892.746,1825.855 1895.832,1826.782 1899.651,1826.782L1902.426,1826.782C1906.369,1826.782 1909.518,1825.824 1911.871,1823.909C1914.224,1821.993 1915.94,1818.995 1917.018,1814.913C1918.096,1810.832 1918.635,1805.279 1918.635,1798.254L1918.635,1727.932L1969.185,1727.932L1969.185,1786.413C1969.185,1809.057 1966.883,1826.949 1962.28,1840.09C1957.677,1853.23 1950.704,1862.587 1941.36,1868.159C1932.016,1873.73 1919.579,1876.516 1904.048,1876.516L1897.026,1876.516C1873.988,1876.516 1857.138,1869.823 1846.476,1856.435C1835.813,1843.048 1830.482,1819.707 1830.482,1786.413L1830.482,1588.704C1830.482,1555.685 1835.813,1532.484 1846.476,1519.099C1857.138,1505.715 1873.988,1499.023 1897.026,1499.023L1904.048,1499.023C1927.091,1499.023 1943.708,1505.745 1953.899,1519.188C1964.09,1532.632 1969.185,1555.804 1969.185,1588.704L1969.185,1699.001L1883.441,1699.001ZM1918.635,1663.32L1918.635,1574.06C1918.635,1563.716 1917.368,1556.37 1914.833,1552.02C1912.299,1547.67 1908.163,1545.495 1902.426,1545.495L1899.651,1545.495C1894.063,1545.495 1889.965,1547.702 1887.355,1552.118C1884.746,1556.534 1883.441,1563.848 1883.441,1574.06L1883.441,1663.32L1918.635,1663.32ZM2043.14,1595.604L2043.14,1872.973L1990.78,1872.973L1990.78,1502.163L2021.334,1502.163L2021.334,1534.685L2025.362,1534.685C2025.77,1531.531 2026.272,1528.647 2026.869,1526.032C2028.748,1517.813 2031.827,1511.78 2036.109,1507.934C2040.39,1504.087 2046.102,1502.163 2053.246,1502.163L2069.69,1502.163L2069.69,1563.673L2059.865,1563.673C2055.509,1563.673 2052.177,1564.663 2049.871,1566.645C2047.565,1568.626 2045.866,1571.927 2044.776,1576.549C2043.685,1581.171 2043.14,1587.523 2043.14,1595.604ZM2134.592,1876.516C2114.917,1876.516 2100.979,1869.893 2092.779,1856.646C2084.579,1843.399 2080.479,1820.401 2080.479,1787.651L2080.479,1588.498C2080.479,1565.854 2082.217,1548.098 2085.692,1535.229C2089.167,1522.36 2094.87,1513.14 2102.801,1507.568C2110.732,1501.996 2121.526,1499.21 2135.182,1499.21L2136.317,1499.21C2150.423,1499.21 2161.151,1502.32 2168.501,1508.538C2175.851,1514.757 2180.363,1523.404 2182.038,1534.479L2187.392,1534.479C2186.723,1524.641 2184.749,1516.552 2181.471,1510.212C2178.193,1503.871 2173.76,1498.563 2168.173,1494.288L2168.173,1451.473L2220.71,1451.473L2220.71,1872.973L2187.579,1872.973L2187.579,1837.282L2182.413,1837.282C2180.082,1850.632 2175.177,1860.509 2167.699,1866.912C2160.221,1873.315 2149.76,1876.516 2136.317,1876.516L2134.592,1876.516ZM2151.963,1825.976C2157.551,1825.976 2161.649,1823.746 2164.259,1819.287C2166.868,1814.827 2168.173,1807.56 2168.173,1797.485L2168.173,1577.651C2168.173,1567.576 2166.838,1560.309 2164.17,1555.849C2161.501,1551.39 2157.432,1549.16 2151.963,1549.16L2149.835,1549.16C2144.123,1549.16 2139.962,1551.459 2137.352,1556.055C2134.743,1560.652 2133.438,1567.851 2133.438,1577.651L2133.438,1797.485C2133.438,1807.679 2134.745,1814.976 2137.357,1819.376C2139.97,1823.776 2144.129,1825.976 2149.835,1825.976L2151.963,1825.976ZM2307.254,1875.12C2291.541,1875.12 2278.869,1872.295 2269.238,1866.645C2259.607,1860.995 2252.483,1852.124 2247.868,1840.034C2243.252,1827.943 2240.944,1812.035 2240.944,1792.31L2240.944,1727.895L2293.547,1727.895L2293.547,1803.195C2293.547,1812.901 2294.791,1819.929 2297.279,1824.279C2299.766,1828.629 2303.76,1830.804 2309.26,1830.804L2310.788,1830.804C2316.288,1830.804 2320.313,1828.72 2322.863,1824.551C2325.413,1820.382 2326.688,1813.866 2326.688,1805.004L2326.688,1752.251C2326.688,1744.157 2325.286,1737.448 2322.483,1732.123C2319.68,1726.798 2316.122,1722.563 2311.81,1719.42C2307.497,1716.276 2301.563,1712.72 2294.007,1708.751C2282.832,1702.926 2273.851,1697.216 2267.063,1691.623C2260.276,1686.029 2254.346,1677.409 2249.274,1665.762C2244.202,1654.115 2241.666,1638.454 2241.666,1618.779L2241.666,1578.748C2241.666,1550.298 2247.049,1529.898 2257.815,1517.548C2268.58,1505.198 2285.722,1499.023 2309.241,1499.023L2312.382,1499.023C2328.363,1499.023 2341.108,1501.712 2350.618,1507.09C2360.127,1512.468 2367.161,1520.966 2371.721,1532.585C2376.28,1544.204 2378.56,1559.676 2378.56,1579.001L2378.56,1645.901L2325.966,1645.901L2325.966,1570.545C2325.966,1560.57 2324.849,1553.504 2322.615,1549.348C2320.38,1545.191 2316.501,1543.113 2310.976,1543.113L2309.438,1543.113C2303.913,1543.113 2300.033,1545.132 2297.799,1549.17C2295.565,1553.207 2294.447,1559.788 2294.447,1568.913L2294.447,1621.366C2294.447,1629.435 2295.88,1636.162 2298.746,1641.546C2301.611,1646.93 2305.23,1651.255 2309.602,1654.521C2313.974,1657.787 2319.804,1661.463 2327.091,1665.551C2338.029,1671.251 2346.957,1676.935 2353.876,1682.604C2360.794,1688.273 2366.76,1696.802 2371.772,1708.193C2376.785,1719.584 2379.291,1734.801 2379.291,1753.845L2379.291,1792.17C2379.291,1822.226 2374.149,1843.565 2363.865,1856.187C2353.58,1868.809 2336.557,1875.12 2312.794,1875.12L2307.254,1875.12Z"/>
    </g>
</svg>
