<?xml version="1.0" encoding="UTF-8" standalone="no"?><!DOCTYPE svg PUBLIC "-//W3C//DTD SVG 1.1//EN" "http://www.w3.org/Graphics/SVG/1.1/DTD/svg11.dtd"><svg width="100%" height="100%" viewBox="0 0 7780 3430" version="1.1" xmlns="http://www.w3.org/2000/svg" xmlns:xlink="http://www.w3.org/1999/xlink" xml:space="preserve" xmlns:serif="http://www.serif.com/" style="fill-rule:evenodd;clip-rule:evenodd;stroke-linejoin:round;stroke-miterlimit:2;"><path d="M7447.842,106.946c89.062,51.733 159.204,121.7 210.246,210.242c51.042,88.542 76.733,184.896 76.733,289.408c0,104.517 -25.521,203.996 -76.733,291.842c-51.042,88.021 -121.183,157.467 -210.246,208.679c-89.062,51.042 -186.979,76.737 -293.575,76.737l-1205.729,0c-106.596,0 -204.167,-25.521 -292.708,-76.737c-88.542,-51.042 -158.333,-120.658 -209.375,-208.679c-51.042,-88.021 -76.737,-185.242 -76.737,-291.842c0,-106.596 25.521,-201.042 76.737,-289.408c51.042,-88.542 121.008,-158.679 209.375,-210.242c88.542,-51.738 186.113,-77.433 292.708,-77.433l1205.554,0c106.6,0 204.517,25.871 293.579,77.433l0.171,0Zm-1825.488,767.533c60.712,-173.983 239.825,-247.558 424.742,-315.438c78.946,-28.979 158.054,-57.587 224.05,-97.6c83.921,-50.883 144.496,-121.85 145.3,-243.546c-159.687,-126.888 -432.771,-71.721 -624.967,120.479c-160.008,160.004 -225.046,376.075 -169.125,536.104Zm890.017,-520.442c-60.708,173.983 -239.821,247.558 -424.738,315.438c-78.946,28.979 -158.054,57.588 -224.05,97.6c-83.925,50.883 -144.496,121.85 -145.3,243.546c159.688,126.888 432.767,71.721 624.967,-120.479c160.008,-160.008 225.042,-376.075 169.121,-536.104Z" style="fill:#fff;"/><g><g><g><clipPath id="_clip1"><rect x="0.834" y="-0" width="5239.224" height="1228.517"/></clipPath><g clip-path="url(#_clip1)"><g><path d="M2289.738,546.769c-7.47,15.312 -17.923,30.491 -31.323,45.52c-27.943,32.69 -66.538,59.053 -115.612,79.265c-48.026,19.157 -101.641,28.648 -160.844,28.648l-350.329,0c-67.062,0 -128.012,-11.775 -182.674,-35.502c-53.615,-24.781 -96.576,-61.865 -129.06,-111.252c-31.261,-49.562 -46.978,-110.197 -46.978,-182.081l0,-31.987c0,-70.829 15.718,-130.936 46.978,-180.499c32.483,-50.617 75.969,-88.228 130.806,-113.009c55.885,-24.781 117.883,-37.084 185.992,-37.084l350.329,0l-0.175,-0.176c69.332,0 131.33,13.006 185.992,38.842c54.663,24.781 97.799,62.392 129.06,113.009c32.483,50.617 48.55,113.009 48.55,187.177l0,484.025c0,87.701 -15.718,160.814 -46.978,219.34c-31.261,57.296 -74.222,100.004 -129.06,128.124c-53.615,27.066 -114.564,40.423 -182.674,40.423l-347.011,0c-67.062,0 -127.313,-12.303 -180.928,-37.084c-53.615,-24.781 -96.052,-62.392 -127.313,-113.009c-31.261,-50.617 -46.978,-112.482 -46.978,-185.596l0,-69.071l48.55,0l0,70.829c0,94.38 28.99,165.911 87.146,214.243c58.155,48.332 131.33,72.586 219.524,72.586l347.011,0c58.155,0 110.024,-11.248 155.954,-33.745c46.978,-23.551 84.352,-60.635 112.294,-111.252c27.943,-50.617 41.914,-114.767 41.914,-192.274l0,-288.411l-12.163,0Zm-651.647,-489.122c-90.386,0.03 -165.773,23.581 -226.16,70.829c-59.203,47.278 -88.892,117.579 -88.892,210.904l0,31.987c0,93.325 29.689,163.626 88.892,210.904c60.251,46.047 135.172,69.071 224.588,69.071l348.583,0c92.734,0 168.703,-23.024 227.906,-69.071c59.203,-47.278 88.892,-117.579 88.892,-210.904l0,-31.987c0,-93.325 -29.689,-163.626 -88.892,-210.904c-59.203,-47.278 -135.172,-70.829 -227.906,-70.829l-346.837,-0l-0.175,0Zm-1265.098,512.849l286.586,0c118.406,0 210.617,26.363 276.456,79.265c65.84,51.672 98.847,127.597 98.847,227.777l0,28.648c0,66.259 -16.766,123.203 -50.297,170.305c-32.483,46.047 -75.969,81.022 -130.806,104.573c-54.837,22.496 -114.04,33.745 -177.61,33.745l-320.117,0l0.175,-0.176c-63.744,0 -122.423,-11.248 -176.038,-33.745c-53.615,-22.496 -97.275,-57.296 -130.806,-104.573c-32.483,-47.278 -48.55,-105.101 -48.55,-173.644l0,-87.701l50.297,0l0,87.701c0,88.756 29.689,155.19 88.892,198.953c60.251,42.708 132.902,64.15 217.952,64.15l318.37,0c51.344,0 100.593,-8.963 147.571,-27.066c48.026,-19.157 86.622,-47.805 115.612,-85.943c30.213,-39.369 45.232,-87.701 45.232,-144.997l0,-30.405c0,-87.701 -28.99,-152.906 -87.146,-195.614c-56.933,-42.708 -137.966,-64.15 -243.1,-64.15l-370.413,0l0,-48.859l595.001,-487.54l0,-8.436l-844.738,0l0,-48.859l933.455,0l0,50.617l-594.827,485.783l0,10.194Zm4448.451,-40.775l70.38,0c108.452,0 193.327,27.066 254.801,81.022c62.521,53.956 93.782,130.936 93.782,231.116l0,23.551c0,77.507 -17.289,142.888 -52.043,195.614c-34.579,52.902 -84.875,93.325 -150.89,121.446c-66.014,27.066 -146.349,40.423 -241.354,40.423l-340.2,0l-0.175,0.176c-88.194,0 -165.385,-13.006 -231.224,-38.842c-66.014,-25.836 -117.359,-65.732 -154.208,-119.688c-36.849,-53.956 -55.361,-121.973 -55.361,-204.05l0,-38.842l375.478,0l0,38.842c0,17.927 2.794,31.987 8.383,42.181c5.589,8.963 14.495,15.818 26.895,20.212c12.225,3.339 28.99,5.097 50.297,5.097l298.287,0c21.306,0 38.072,-2.285 50.297,-6.679c13.447,-5.624 22.878,-13.533 28.466,-23.551c6.636,-11.248 10.129,-24.254 10.129,-38.842l0,-25.309c0,-22.496 -7.859,-39.896 -23.402,-52.375c-15.718,-12.303 -36.849,-18.63 -63.744,-18.63l-546.451,0l0,-242.891l313.48,-155.19l0,-27.066l-472.578,0l0,-313.544l1094.474,0l0,307.041l-343.518,173.644l0,25.133Zm-1766.841,693.348c-175.339,0 -309.987,-43.938 -403.944,-131.639c-92.734,-88.756 -139.189,-226.546 -139.189,-413.196l0,-124.785c0,-187.705 46.28,-326.023 139.189,-414.954c93.782,-88.756 228.43,-133.221 403.944,-133.221l402.198,0c108.452,0 199.964,17.927 274.885,53.956c75.969,36.029 134.648,92.271 176.038,168.723c41.39,76.453 61.997,174.347 61.997,293.508l0,42.181l-390.497,0l0,-42.181c-1.048,-46.047 -6.112,-82.077 -15.019,-107.913c-8.907,-25.836 -23.402,-44.466 -43.66,-55.714c-19.036,-12.303 -45.232,-18.63 -78.763,-18.63l-365.349,0c-53.615,0 -93.258,16.872 -118.93,50.617c-24.624,32.69 -36.849,86.646 -36.849,161.869l0,129.882c0,73.113 12.225,126.015 36.849,158.53c25.672,32.69 65.316,48.859 118.93,48.859l365.349,0c33.531,0 59.727,-5.624 78.763,-16.872c20.084,-11.248 34.579,-29.878 43.66,-55.714c10.129,-27.066 15.019,-62.92 15.019,-107.913l0,-33.745l390.497,0l0,31.987c0,119.161 -20.608,217.056 -61.997,293.508c-40.167,76.453 -98.323,132.694 -174.292,168.723c-75.969,36.029 -168.179,53.956 -276.456,53.956l-402.198,0l-0.175,0.176Z" style="fill:#fff;fill-rule:nonzero;"/></g></g></g></g></g><g><path d="M356.325,3425.114c-85.353,0 -153.329,-14.943 -203.927,-44.828c-50.593,-29.885 -88.641,-80.3 -114.144,-151.234c-25.503,-70.939 -38.254,-169.44 -38.254,-295.5l0,-1178.012c0,-126.064 12.751,-224.713 38.254,-295.95c25.503,-71.237 63.551,-121.652 114.144,-151.239c50.598,-29.587 118.574,-44.378 203.927,-44.378l42.045,0c83.407,0 150.407,14.943 201,44.828c50.598,29.891 88.646,80.452 114.149,151.689c25.503,71.237 38.254,169.587 38.254,295.049l0,540.995l-278.218,0l0,-610.066c0,-40.957 -3.203,-73.297 -9.614,-97.014c-6.411,-23.722 -15.854,-40.765 -28.334,-51.138c-12.475,-10.373 -29.601,-15.56 -51.378,-15.56l-16.688,0c-30.702,0 -52.931,11.826 -66.678,35.482c-13.747,23.656 -20.625,66.4 -20.625,128.23l0,1316.155c0,61.825 6.879,104.569 20.625,128.225c13.747,23.656 35.976,35.487 66.678,35.487l16.688,0c21.807,0 38.943,-5.187 51.403,-15.56c12.46,-10.373 21.898,-27.421 28.309,-51.138c6.411,-23.722 9.614,-56.062 9.614,-97.014l0,-521.407l278.218,0l0,452.335c0,126.059 -12.751,224.561 -38.254,295.5c-25.503,70.934 -63.551,121.348 -114.149,151.234c-50.593,29.885 -117.593,44.828 -201,44.828l-42.045,0Z" style="fill:#fff;fill-rule:nonzero;"/><path d="M1202.569,3425.114c-116.432,0 -201.448,-34.02 -255.043,-102.064c-53.595,-68.044 -80.395,-186.301 -80.395,-354.775l0,-997.646c0,-167.715 26.8,-285.435 80.395,-353.161c53.595,-67.731 138.611,-101.593 255.043,-101.593l46.058,0c116.462,0 201,33.863 253.605,101.593c52.61,67.726 78.912,185.446 78.912,353.161l0,997.646c0,169.076 -26.302,287.484 -78.912,355.225c-52.605,67.746 -137.143,101.614 -253.605,101.614l-46.058,0Zm29.887,-250.763c30.109,0 51.373,-11.284 63.802,-33.848c12.43,-22.563 18.644,-60.019 18.644,-112.361l0,-1113.302c0,-53.704 -6.371,-91.837 -19.117,-114.401c-12.741,-22.563 -33.85,-33.848 -63.33,-33.848l-15.743,0c-28.691,0 -49.754,11.289 -63.189,33.873c-13.435,22.579 -20.153,60.707 -20.153,114.375l0,1113.302c0,52.945 6.708,90.547 20.128,112.812c13.42,22.265 34.488,33.397 63.214,33.397l15.743,0Z" style="fill:#fff;fill-rule:nonzero;"/><path d="M1721.278,1782.435l-78.726,0l0,-251.618l123.693,0l0,-27.467l-44.967,-18.313l0,-32.967c0,-58.825 16.07,-103.228 48.22,-133.209c32.15,-29.982 90.019,-44.975 173.612,-44.975l128.454,0l0,196.022l-89.753,0c-21.526,0 -36.097,3.78 -43.72,11.335c-7.623,7.56 -11.434,21.192 -11.434,40.896l0,41.65l144.906,0l0,218.646l-86.077,0l0,1624.75l-264.209,0l0,-1624.75Z" style="fill:#fff;fill-rule:nonzero;"/><path d="M2200.954,1782.435l-78.726,0l0,-251.618l123.693,0l0,-27.467l-44.967,-18.313l0,-32.967c0,-58.825 16.07,-103.228 48.22,-133.209c32.15,-29.982 90.019,-44.975 173.612,-44.975l128.454,0l0,196.022l-89.753,0c-21.526,0 -36.102,3.78 -43.72,11.335c-7.623,7.56 -11.434,21.192 -11.434,40.896l0,41.65l144.906,0l0,218.646l-86.077,0l0,1624.75l-264.209,0l0,-1624.75Z" style="fill:#fff;fill-rule:nonzero;"/><path d="M2874.983,2526.855l0,502.239c0,34.819 2.866,62.898 8.603,84.227c5.732,21.334 14.516,36.686 26.348,46.063c11.831,9.377 27.348,14.067 46.551,14.067l13.953,0c19.831,0 35.66,-4.848 47.491,-14.538c11.831,-9.695 20.46,-24.866 25.88,-45.521c5.42,-20.651 8.131,-48.75 8.131,-84.298l0,-355.843l254.173,0l0,295.925c0,114.583 -11.57,205.12 -34.714,271.616c-23.145,66.491 -58.211,113.839 -105.194,142.034c-46.978,28.19 -109.518,42.288 -187.61,42.288l-35.308,0c-115.839,0 -200.563,-33.868 -254.173,-101.614c-53.615,-67.741 -80.42,-185.851 -80.42,-354.324l0,-1000.445c0,-167.082 26.805,-284.484 80.42,-352.214c53.61,-67.726 138.335,-101.588 254.173,-101.588l35.308,0c115.869,0 199.422,34.015 250.659,102.039c51.242,68.029 76.86,185.284 76.86,351.764l0,558.124l-431.129,0Zm176.956,-180.553l0,-451.672c0,-52.343 -6.371,-89.515 -19.112,-111.527c-12.746,-22.012 -33.543,-33.018 -62.389,-33.018l-13.953,0c-28.097,0 -48.703,11.168 -61.821,33.514c-13.123,22.346 -19.68,59.356 -19.68,111.031l0,451.672l176.956,0Z" style="fill:#fff;fill-rule:nonzero;"/><path d="M3671.418,2526.855l0,502.239c0,34.819 2.866,62.898 8.603,84.227c5.737,21.334 14.516,36.686 26.353,46.063c11.831,9.377 27.348,14.067 46.546,14.067l13.953,0c19.831,0 35.665,-4.848 47.496,-14.538c11.831,-9.695 20.455,-24.866 25.88,-45.521c5.42,-20.651 8.131,-48.75 8.131,-84.298l0,-355.843l254.173,0l0,295.925c0,114.583 -11.575,205.12 -34.719,271.616c-23.145,66.491 -58.211,113.839 -105.189,142.034c-46.983,28.19 -109.523,42.288 -187.616,42.288l-35.308,0c-115.834,0 -200.558,-33.868 -254.173,-101.614c-53.61,-67.741 -80.415,-185.851 -80.415,-354.324l0,-1000.445c0,-167.082 26.805,-284.484 80.415,-352.214c53.615,-67.726 138.34,-101.588 254.173,-101.588l35.308,0c115.869,0 199.422,34.015 250.664,102.039c51.237,68.029 76.86,185.284 76.86,351.764l0,558.124l-431.134,0Zm176.961,-180.553l0,-451.672c0,-52.343 -6.371,-89.515 -19.117,-111.527c-12.741,-22.012 -33.538,-33.018 -62.389,-33.018l-13.953,0c-28.092,0 -48.703,11.168 -61.821,33.514c-13.118,22.346 -19.68,59.356 -19.68,111.031l0,451.672l176.961,0Z" style="fill:#fff;fill-rule:nonzero;"/><path d="M4470.728,1915.316l0,1491.87l-264.164,0l0,-1876.368l166.543,0l0,165.468l23.541,-0c9.199,-41.137 23.356,-75.222 42.474,-102.256c36.846,-52.1 101.689,-78.155 194.519,-78.155l3.017,0c70.017,0 124.638,13.941 163.857,41.817c39.22,27.882 67.055,73.767 83.508,137.667c16.447,63.905 24.673,153.147 24.673,267.724l0,1444.102l-264.164,0l0,-1491.87c0,-36.686 -2.71,-66.116 -8.131,-88.285c-5.42,-22.169 -14.205,-37.784 -26.353,-46.847c-12.148,-9.063 -28.776,-13.592 -49.894,-13.592l-4.998,0c-21.118,0 -37.761,4.529 -49.92,13.592c-12.163,9.063 -20.952,24.446 -26.378,46.159c-5.42,21.708 -8.131,51.366 -8.131,88.973Z" style="fill:#fff;fill-rule:nonzero;"/><path d="M5282.383,2526.855l0,502.239c0,34.819 2.866,62.898 8.603,84.227c5.732,21.334 14.516,36.686 26.348,46.063c11.831,9.377 27.348,14.067 46.551,14.067l13.953,0c19.831,0 35.66,-4.848 47.491,-14.538c11.836,-9.695 20.46,-24.866 25.88,-45.521c5.42,-20.651 8.136,-48.75 8.136,-84.298l0,-355.843l254.173,0l0,295.925c0,114.583 -11.575,205.12 -34.719,271.616c-23.145,66.491 -58.211,113.839 -105.189,142.034c-46.983,28.19 -109.523,42.288 -187.616,42.288l-35.308,0c-115.834,0 -200.558,-33.868 -254.173,-101.614c-53.61,-67.741 -80.42,-185.851 -80.42,-354.324l0,-1000.445c0,-167.082 26.81,-284.484 80.42,-352.214c53.615,-67.726 138.34,-101.588 254.173,-101.588l35.308,0c115.869,0 199.422,34.015 250.664,102.039c51.237,68.029 76.86,185.284 76.86,351.764l0,558.124l-431.134,0Zm176.961,-180.553l0,-451.672c0,-52.343 -6.376,-89.515 -19.117,-111.527c-12.741,-22.012 -33.538,-33.018 -62.389,-33.018l-13.953,0c-28.092,0 -48.703,11.168 -61.821,33.514c-13.123,22.346 -19.68,59.356 -19.68,111.031l0,451.672l176.961,0Z" style="fill:#fff;fill-rule:nonzero;"/><path d="M6085.369,2003.647l0,1403.539l-263.269,0l0,-1876.368l153.625,0l0,164.567l20.257,-0c2.048,-15.96 4.574,-30.555 7.578,-43.786c9.443,-41.59 24.93,-72.118 46.455,-91.579c21.526,-19.467 50.251,-29.202 86.173,-29.202l82.678,0l0,311.252l-49.402,0c-21.903,0 -38.651,5.01 -50.246,15.039c-11.6,10.024 -20.138,26.728 -25.623,50.116c-5.481,23.388 -8.226,55.53 -8.226,96.422Z" style="fill:#fff;fill-rule:nonzero;"/><path d="M6545.204,3425.114c-98.929,0 -169.006,-33.514 -210.237,-100.546c-41.231,-67.032 -61.846,-183.406 -61.846,-349.128l0,-1007.752c0,-114.583 8.734,-204.432 26.207,-269.551c17.473,-65.12 46.148,-111.774 86.027,-139.97c39.883,-28.195 94.152,-42.293 162.822,-42.293l5.702,0c70.927,0 124.869,15.737 161.826,47.201c36.957,31.469 59.649,75.225 68.071,131.266l26.916,0c-3.364,-49.782 -13.284,-90.714 -29.767,-122.796c-16.482,-32.087 -38.772,-58.946 -66.869,-80.578l0,-216.652l264.169,0l0,2132.869l-166.588,0l0,-180.603l-25.975,0c-11.721,67.554 -36.384,117.533 -73.984,149.933c-37.601,32.4 -90.2,48.598 -157.799,48.598l-8.674,0Zm87.349,-255.742c28.092,0 48.703,-11.284 61.821,-33.848c13.123,-22.568 19.68,-59.341 19.68,-110.322l0,-1112.401c0,-50.981 -6.708,-87.754 -20.128,-110.322c-13.42,-22.563 -33.875,-33.848 -61.374,-33.848l-10.7,0c-28.726,0 -49.648,11.633 -62.766,34.89c-13.118,23.262 -19.68,59.69 -19.68,109.28l0,1112.401c0,51.584 6.567,88.508 19.705,110.773c13.134,22.265 34.051,33.397 62.741,33.397l10.7,0Z" style="fill:#fff;fill-rule:nonzero;"/><path d="M7413.375,3418.05c-79.002,0 -142.719,-14.295 -191.145,-42.885c-48.431,-28.59 -84.247,-73.479 -107.457,-134.657c-23.205,-61.183 -34.81,-141.68 -34.81,-241.492l0,-325.952l264.496,0l0,381.032c0,49.114 6.255,84.677 18.76,106.689c12.51,22.012 32.587,33.018 60.242,33.018l7.688,0c27.655,0 47.893,-10.545 60.715,-31.641c12.822,-21.096 19.233,-54.068 19.233,-98.911l0,-266.94c0,-40.957 -7.049,-74.906 -21.143,-101.851c-14.094,-26.945 -31.984,-48.375 -53.671,-64.28c-21.681,-15.909 -51.518,-33.903 -89.516,-53.987c-56.19,-29.476 -101.347,-58.369 -135.474,-86.671c-34.131,-28.307 -63.948,-71.926 -89.451,-130.862c-25.498,-58.936 -38.249,-138.184 -38.249,-237.743l0,-202.564c0,-143.962 27.062,-247.19 81.195,-309.683c54.133,-62.493 140.326,-93.74 258.583,-93.74l15.788,0c80.36,0 144.444,13.607 192.257,40.821c47.818,27.214 83.186,70.215 106.109,129.009c22.928,58.794 34.388,137.086 34.388,234.874l0,338.527l-264.446,0l0,-381.315c0,-50.475 -5.621,-86.231 -16.854,-107.261c-11.233,-21.035 -30.742,-31.55 -58.523,-31.55l-7.728,0c-27.781,0 -47.29,10.217 -58.528,30.65c-11.233,20.428 -16.849,53.729 -16.849,99.903l0,265.422c0,40.831 7.205,74.871 21.611,102.115c14.411,27.244 32.608,49.129 54.591,65.656c21.978,16.527 51.292,35.128 87.937,55.814c54.993,28.843 99.884,57.605 134.674,86.291c34.79,28.686 64.783,71.845 89.989,129.485c25.201,57.641 37.807,134.641 37.807,231.008l0,193.932c0,152.089 -25.86,260.068 -77.569,323.938c-51.71,63.87 -137.309,95.805 -256.788,95.805l-27.861,0Z" style="fill:#fff;fill-rule:nonzero;"/></g></svg>